HIERARCHY
ROOT hip
{
	OFFSET 0.000000 0.000000 0.000000 
	CHANNELS 6 Xposition Yposition Zposition Xrotation Zrotation Yrotation
	JOINT abdomen
	{
		OFFSET 0.000000 3.402643 0.000000 
		CHANNELS 3 Xrotation Zrotation Yrotation
		JOINT chest
		{
			OFFSET 0.000000 8.438565 -0.680529 
			CHANNELS 3 Xrotation Zrotation Yrotation
			JOINT neck
			{
				OFFSET 0.000000 10.207942 -0.272212 
				CHANNELS 3 Xrotation Zrotation Yrotation
				JOINT head
				{
					OFFSET 0.000000 3.130431 0.000000 
					CHANNELS 3 Xrotation Zrotation Yrotation
					End Site
					{
						OFFSET 0.000000 3.130435 0.000000 
					}
				}
			}
			JOINT lCollar
			{
				OFFSET 3.470700 6.669187 -0.816635 
				CHANNELS 3 Yrotation Zrotation Xrotation
				JOINT lShldr
				{
					OFFSET 3.198488 0.000000 0.000000 
					CHANNELS 3 Zrotation Yrotation Xrotation
					JOINT lForeArm
					{
						OFFSET 10.139888 0.000000 0.000000 
						CHANNELS 3 Yrotation Zrotation Xrotation
						JOINT lHand
						{
							OFFSET 8.370511 0.000000 0.000000 
							CHANNELS 3 Zrotation Yrotation Xrotation
							End Site
							{
								OFFSET 4.083176 0.000000 0.000000 
							}
						}
					}
				}
			}
			JOINT rCollar
			{
				OFFSET -3.470700 6.669187 -0.816635 
				CHANNELS 3 Yrotation Zrotation Xrotation
				JOINT rShldr
				{
					OFFSET -3.198488 0.000000 0.000000 
					CHANNELS 3 Zrotation Yrotation Xrotation
					JOINT rForeArm
					{
						OFFSET -10.139888 0.000000 0.000000 
						CHANNELS 3 Yrotation Zrotation Xrotation
						JOINT rHand
						{
							OFFSET -8.370511 0.000000 0.000000 
							CHANNELS 3 Zrotation Yrotation Xrotation
							End Site
							{
								OFFSET -4.083176 0.000000 0.000000 
							}
						}
					}
				}
			}
		}
	}
	JOINT lThigh
	{
		OFFSET 5.308129 -1.633274 1.361059 
		CHANNELS 3 Xrotation Zrotation Yrotation
		JOINT lShin
		{
			OFFSET -2.041588 -20.007561 0.000000 
			CHANNELS 3 Xrotation Zrotation Yrotation
			JOINT lFoot
			{
				OFFSET 0.000000 -19.190928 -1.224953 
				CHANNELS 3 Xrotation Yrotation Zrotation
				End Site
				{
					OFFSET 0.000000 -2.449906 4.627600 
				}
			}
		}
	}
	JOINT rThigh
	{
		OFFSET -5.308129 -1.633274 1.361059 
		CHANNELS 3 Xrotation Zrotation Yrotation
		JOINT rShin
		{
			OFFSET 2.041588 -20.007561 0.000000 
			CHANNELS 3 Xrotation Zrotation Yrotation
			JOINT rFoot
			{
				OFFSET 0.000000 -19.190928 -1.224953 
				CHANNELS 3 Xrotation Yrotation Zrotation
				End Site
				{
					OFFSET 0.000000 -2.449906 4.627600 
				}
			}
		}
	}
}
MOTION
Frames: 18
Frame Time: 0.011111
21.041252 46.699635 -38.275661 20.236969 0.483083 -43.304173 36.310844 6.517670 0.834054 -25.564713 8.872240 -0.804214 -13.699374 -6.023271 0.248441 36.560490 19.705759 5.480764 6.655530 -7.385053 2.814211 -38.621494 -50.651814 -21.445690 -46.992203 6.946239 6.962121 8.524705 12.647240 -58.792370 -7.245022 1.299557 2.988899 61.344860 42.019672 21.313040 68.698456 -9.289472 16.456327 -8.534408 -12.637552 60.501816 -33.280689 19.667616 10.397437 86.656380 0.722924 -9.676495 -25.589657 -0.822634 -2.591386 -29.928085 -0.918116 -5.683840 70.250175 1.507593 8.909575 -32.475826 2.817315 2.980566 
20.825300 46.655758 -37.885761 20.584641 0.567926 -42.908234 36.101173 6.419818 1.207411 -25.613678 8.784224 -0.686683 -13.978319 -6.090569 0.048602 36.746513 20.236673 5.220829 6.655530 -7.385053 2.814211 -37.162903 -50.241505 -21.947338 -47.178200 6.995120 7.036333 8.524705 12.647240 -58.518929 -7.245022 1.299557 2.988899 60.882713 42.788067 21.784485 69.670753 -9.200776 16.938133 -8.534408 -12.637552 60.482281 -36.370667 20.434372 10.409936 88.386757 0.957401 -9.699265 -25.274050 -1.582562 -2.972696 -29.259584 -0.917315 -5.862988 69.617241 1.582179 8.855407 -32.829960 3.021525 3.079773 
20.594414 46.647976 -37.405632 20.894152 0.411946 -42.523670 35.952511 6.530210 1.867656 -25.275291 8.252213 -0.475786 -14.410963 -5.967106 -0.320927 36.671867 20.903721 4.608931 6.655530 -7.385053 2.814211 -35.291382 -50.221848 -22.393473 -47.075489 6.972341 6.997093 8.524705 12.647240 -58.616596 -7.245022 1.299557 2.988899 60.724007 43.839096 21.562454 70.469643 -9.107346 17.324213 -8.534408 -12.637552 59.671730 -39.302971 21.247187 10.312203 89.756882 1.151369 -9.720887 -24.714804 -2.206332 -3.273209 -28.052689 -0.839551 -6.099735 68.613350 1.689360 8.784800 -33.343258 3.023498 3.045644 
20.326183 46.733864 -36.820324 21.010351 0.162059 -42.263493 35.905746 6.572963 2.669820 -25.066645 7.828256 -0.246173 -14.244751 -6.152772 -0.731696 36.217560 21.657644 3.924184 6.655530 -7.385053 2.814211 -33.856907 -49.920967 -22.702940 -47.240143 7.011477 7.064014 8.524705 12.647240 -58.597061 -7.245022 1.299557 2.988899 60.274563 44.458916 21.604349 71.661743 -8.939333 17.924011 -8.534408 -12.637552 59.788921 -41.673317 21.821268 10.247407 90.621231 1.288745 -9.728558 -24.122089 -2.637071 -3.519642 -26.263554 -0.858978 -6.320622 67.200699 1.885115 8.669937 -33.923286 3.514507 3.298023 
20.047688 46.860821 -36.229103 21.123276 -0.048505 -41.998722 35.860374 6.550146 3.163391 -25.352667 7.867959 -0.142430 -13.791762 -6.442301 -0.983057 36.035824 22.033224 3.504387 6.655530 -7.385053 2.814211 -32.922466 -49.056736 -23.260792 -47.499203 7.079363 7.155790 8.524705 12.647240 -58.440807 -7.245022 1.299557 2.988899 59.478245 44.650620 22.015337 72.969460 -8.711756 18.589191 -8.534408 -12.637552 59.867046 -43.909912 22.290371 10.206942 91.068520 1.337131 -9.741533 -23.898401 -2.935138 -3.668250 -24.445114 -0.829705 -6.577844 65.523422 2.098861 8.541211 -34.424236 3.466439 3.215751 
19.783504 46.930832 -35.676464 21.417381 -0.413353 -41.649311 35.845367 6.780285 3.609561 -25.797468 8.099853 -0.115400 -13.663951 -6.553359 -1.183832 36.377598 21.953434 3.132104 6.655530 -7.385053 2.814211 -32.325375 -47.918964 -23.957821 -47.799885 7.159086 7.277190 8.524705 12.647240 -58.421280 -7.245022 1.299557 2.988899 58.607544 44.856030 22.567442 74.232491 -8.442688 19.231096 -8.534408 -12.637552 59.857285 -46.419350 23.061684 10.061613 91.349625 1.385497 -9.755359 -23.962523 -3.158724 -3.757716 -22.518808 -0.419932 -6.414257 63.726513 2.319046 8.438994 -34.817184 4.802326 4.073214 
19.513100 47.041298 -35.094269 21.674906 -0.844106 -41.293446 35.788544 7.012481 4.276834 -25.975380 8.172087 0.010085 -13.490289 -6.846634 -1.452366 36.521076 22.300987 2.684722 6.655530 -7.385053 2.814211 -31.986444 -46.852558 -24.235739 -48.464027 7.327811 7.542067 8.524705 12.647240 -58.313854 -7.245022 1.299557 2.988899 57.816624 45.192299 22.570597 75.341988 -8.170892 19.826059 -8.534408 -12.637552 59.554550 -48.821678 23.784386 9.819222 91.262550 1.366182 -9.751070 -24.044802 -3.382149 -3.848955 -20.506012 0.077707 -6.318207 61.744068 2.542757 8.278891 -34.352180 0.499560 1.253206 
19.245493 47.214931 -34.510513 21.920973 -1.220386 -40.903378 35.818142 7.050502 4.951329 -26.004494 8.108658 0.168679 -13.188728 -7.222093 -1.820858 36.241703 23.167776 2.128816 6.655530 -7.385053 2.814211 -31.326588 -45.930656 -23.943411 -49.526318 7.589903 7.965053 8.524705 12.647240 -57.307991 -7.245022 1.299557 2.988899 57.294010 45.706505 22.285353 76.407524 -7.869479 20.405542 -8.534408 -12.637552 59.105328 -51.476295 24.359676 9.279616 90.805565 1.298096 -9.757143 -24.097414 -3.861625 -4.058290 -18.883360 0.712595 -7.284858 59.554913 2.806537 8.087895 -33.536999 -3.945341 -1.275501 
18.945528 47.399452 -33.849903 22.142069 -1.672825 -40.691814 35.805950 7.048234 5.735562 -25.746773 7.888885 0.390356 -13.827854 -6.901795 -2.186441 36.708134 23.500418 1.520791 6.655530 -7.385053 2.814211 -30.166573 -45.429874 -23.956507 -50.297928 7.764441 8.271548 8.524705 12.647240 -55.921272 -7.245022 1.299557 2.988899 56.848896 46.244728 22.194954 77.583565 -7.483582 21.056864 -8.534408 -12.637552 59.134624 -53.744259 24.937626 8.858116 89.960983 1.180403 -9.722502 -24.524746 -4.426653 -4.312386 -16.276382 1.210831 -5.855725 57.245430 3.061888 7.902059 -34.432961 1.616928 1.984409 
18.637470 47.636871 -33.149151 22.369431 -2.134260 -40.499928 35.795284 7.004152 6.460052 -25.786158 7.925827 0.577828 -14.429892 -6.904172 -2.536936 37.728825 24.075666 1.064355 6.655530 -7.385053 2.814211 -29.024902 -45.024357 -24.437899 -50.517288 7.813344 8.360600 8.524705 12.647240 -54.866589 -7.245022 1.299557 2.988899 56.169601 46.483353 22.296576 78.755104 -7.039263 21.726849 -8.534408 -12.637552 59.447117 -55.761593 25.390701 8.367560 88.726692 1.005394 -9.710279 -24.875097 -4.804284 -4.489888 -13.938409 1.766730 -5.389366 54.787758 3.333997 7.654928 -33.946632 1.528351 1.998118 
18.334702 47.889542 -32.436886 22.652475 -2.668860 -40.163345 35.711811 7.188525 7.067237 -26.072836 8.098696 0.679820 -11.328676 -7.552751 -2.808536 34.160988 25.565172 0.742653 6.655530 -7.385053 2.814211 -28.242975 -44.160625 -24.577309 -50.685139 7.853234 8.430555 8.524705 12.647240 -54.427135 -7.245022 1.299557 2.988899 55.331238 46.417141 22.598854 79.896606 -6.539852 22.421116 -8.534408 -12.637552 59.603374 -57.761898 25.682697 7.652565 87.230659 0.790858 -9.674988 -25.007357 -4.933985 -4.548990 -11.650289 2.382367 -5.091363 52.347008 3.560617 7.416142 -33.054878 0.636636 1.555799 
18.034426 48.119499 -31.727419 22.859329 -3.229163 -39.699829 35.637341 7.480072 7.476688 -26.241201 8.223834 0.711853 -13.211315 -7.840744 -3.182390 37.392742 26.370398 0.436314 6.655530 -7.385053 2.814211 -27.523727 -43.119034 -24.711941 -50.831448 7.884807 8.490945 8.524705 12.647240 -54.319710 -7.245022 1.299557 2.988899 54.480736 46.340733 23.036654 80.957260 -6.004407 23.084631 -8.534408 -12.637552 59.779160 -59.540371 25.800589 6.999277 85.511124 0.546927 -9.625338 -25.088665 -4.705034 -4.438590 -9.401972 2.909432 -4.859151 49.930893 3.805013 7.198575 -31.714659 -0.500080 1.103156 
17.726057 48.312115 -30.971592 23.024336 -3.904153 -39.292019 35.548855 8.024259 7.844665 -26.301579 8.402346 0.715589 -15.754429 -8.064856 -3.419553 41.448677 26.326750 0.177986 6.655530 -7.385053 2.814211 -26.976471 -41.976059 -24.937885 -50.998306 7.917471 8.552659 8.524705 12.647240 -53.792370 -7.245022 1.299557 2.988899 53.751541 46.726559 23.147003 81.491112 -5.706361 23.449249 -8.534408 -12.637552 59.427597 -61.218788 25.887674 6.182329 83.625114 0.293040 -9.582738 -24.954901 -4.669132 -4.429061 -7.010258 3.377815 -4.543623 47.582375 4.020040 6.937300 -29.954178 -0.907232 1.171924 
17.408976 48.617680 -30.132366 23.154264 -4.689639 -38.884663 35.497559 8.620088 8.306569 -26.421814 8.652528 0.732617 -12.110721 -8.386973 -3.566377 37.201382 27.049519 -0.064574 6.655530 -7.385053 2.814211 -26.717705 -40.779011 -24.992756 -51.385826 8.000811 8.713338 8.524705 12.647240 -53.059948 -7.245022 1.299557 2.988899 52.776314 46.703995 23.284868 82.158424 -5.299413 23.917980 -8.534408 -12.637552 59.115097 -62.475502 25.895918 5.309846 81.312332 -0.028426 -9.491022 -24.726337 -5.007070 -4.600601 -4.470325 3.777445 -4.292738 45.219196 4.245022 6.681127 -27.667103 -0.768513 1.589480 
17.104029 48.930717 -29.276649 23.303905 -5.396825 -38.555721 35.375069 9.029572 9.036095 -26.391779 8.635507 0.866244 -11.654781 -8.407559 -3.995630 37.073032 27.485577 -0.752509 6.655530 -7.385053 2.814211 -26.272676 -39.985428 -25.182659 -51.879250 8.105859 8.917136 8.524705 12.647240 -52.151741 -7.245022 1.299557 2.988899 52.076637 46.821461 23.057817 82.704414 -4.935061 24.331505 -8.534408 -12.637552 58.675640 -63.515522 25.898613 4.527574 78.717361 -0.410386 -9.382338 -24.626856 -5.218393 -4.686324 -2.205526 4.030946 -4.216012 42.942944 4.430591 6.410437 -24.742085 -0.623147 2.019702 
16.796284 49.235035 -28.400713 23.425879 -6.069026 -38.345173 35.127541 9.363194 9.814933 -26.271898 8.491390 1.034983 -11.287574 -8.629767 -4.424958 37.306339 28.381069 -1.264089 6.655530 -7.385053 2.814211 -25.726801 -39.271259 -25.376852 -52.477402 8.223914 9.165148 8.524705 12.647240 -50.921276 -7.245022 1.299557 2.988899 51.511929 46.989555 22.628832 83.103897 -4.646695 24.650671 -8.534408 -12.637552 58.314312 -64.293861 25.897112 3.864614 75.779663 -0.788380 -9.234433 -24.432890 -5.143018 -4.646488 -0.126798 4.116338 -4.247884 40.700951 4.613155 6.164870 -21.342703 -0.404292 2.452389 
16.486361 49.520691 -27.466270 23.462835 -6.779189 -38.082039 34.881905 9.888393 10.363604 -26.193193 8.555730 1.118718 -10.854749 -8.961440 -4.710421 37.696716 29.016270 -1.527899 6.655530 -7.385053 2.814211 -25.520779 -38.180443 -25.405132 -53.088024 8.342777 9.416034 8.524705 12.647240 -49.583385 -7.245022 1.299557 2.988899 50.563400 47.030514 22.510172 83.453720 -4.378079 24.944424 -8.534408 -12.637552 58.304543 -64.704216 25.799513 3.252354 72.694542 -1.188426 -9.058936 -24.186531 -4.815511 -4.497580 1.979748 4.035201 -4.415486 38.604355 4.766866 5.927686 -17.604723 0.300908 2.944592 
16.186703 49.789543 -26.490129 23.404654 -7.467608 -37.822327 34.643250 10.443156 10.730673 -26.154892 8.732724 1.137104 -10.499922 -9.219240 -4.885592 38.305309 29.232582 -1.625991 6.655530 -7.385053 2.814211 -25.499811 -36.871925 -25.461178 -53.708412 8.451329 9.671202 8.524705 12.647240 -48.079479 -7.245022 1.299557 2.988899 49.477005 47.008438 22.729116 83.769600 -4.117533 25.215176 -8.534408 -12.637552 58.509628 -64.749763 25.671089 2.810716 69.499580 -1.607436 -8.873149 -24.049332 -4.569870 -4.398519 4.017814 3.753519 -4.848433 36.513397 4.929108 5.649426 -13.169546 0.958305 3.302481 
